<svg width="40" height="36" viewBox="0 0 40 36" fill="none" xmlns="http://www.w3.org/2000/svg">
<rect x="10" width="3" height="8" rx="1.5" fill="black"/>
<rect x="26" width="3" height="8" rx="1.5" fill="black"/>
<path fill-rule="evenodd" clip-rule="evenodd" d="M14 4H25V7C25 8.10457 25.8954 9 27 9H28C29.1046 9 30 8.10457 30 7V4H35C37.7614 4 40 6.23858 40 9V12H0V9C0 6.23858 2.23858 4 5 4H9V7C9 8.10457 9.89543 9 11 9H12C13.1046 9 14 8.10457 14 7V4ZM0 15H40V31C40 33.7614 37.7614 36 35 36H5C2.23858 36 0 33.7614 0 31V15ZM13 21C14.1046 21 15 20.1046 15 19C15 17.8954 14.1046 17 13 17C11.8954 17 11 17.8954 11 19C11 20.1046 11.8954 21 13 21ZM22 19C22 20.1046 21.1046 21 20 21C18.8954 21 18 20.1046 18 19C18 17.8954 18.8954 17 20 17C21.1046 17 22 17.8954 22 19ZM27 21C28.1046 21 29 20.1046 29 19C29 17.8954 28.1046 17 27 17C25.8954 17 25 17.8954 25 19C25 20.1046 25.8954 21 27 21ZM36 19C36 20.1046 35.1046 21 34 21C32.8954 21 32 20.1046 32 19C32 17.8954 32.8954 17 34 17C35.1046 17 36 17.8954 36 19ZM13 27C14.1046 27 15 26.1046 15 25C15 23.8954 14.1046 23 13 23C11.8954 23 11 23.8954 11 25C11 26.1046 11.8954 27 13 27ZM22 25C22 26.1046 21.1046 27 20 27C18.8954 27 18 26.1046 18 25C18 23.8954 18.8954 23 20 23C21.1046 23 22 23.8954 22 25ZM27 27C28.1046 27 29 26.1046 29 25C29 23.8954 28.1046 23 27 23C25.8954 23 25 23.8954 25 25C25 26.1046 25.8954 27 27 27ZM36 25C36 26.1046 35.1046 27 34 27C32.8954 27 32 26.1046 32 25C32 23.8954 32.8954 23 34 23C35.1046 23 36 23.8954 36 25ZM6 27C7.10457 27 8 26.1046 8 25C8 23.8954 7.10457 23 6 23C4.89543 23 4 23.8954 4 25C4 26.1046 4.89543 27 6 27ZM8 31C8 32.1046 7.10457 33 6 33C4.89543 33 4 32.1046 4 31C4 29.8954 4.89543 29 6 29C7.10457 29 8 29.8954 8 31ZM13 33C14.1046 33 15 32.1046 15 31C15 29.8954 14.1046 29 13 29C11.8954 29 11 29.8954 11 31C11 32.1046 11.8954 33 13 33ZM22 31C22 32.1046 21.1046 33 20 33C18.8954 33 18 32.1046 18 31C18 29.8954 18.8954 29 20 29C21.1046 29 22 29.8954 22 31ZM27 33C28.1046 33 29 32.1046 29 31C29 29.8954 28.1046 29 27 29C25.8954 29 25 29.8954 25 31C25 32.1046 25.8954 33 27 33Z" fill="black"/>
</svg>
