<svg width="170" height="38" viewBox="0 0 170 38" fill="none" xmlns="http://www.w3.org/2000/svg">
<path d="M141.5 15C147.081 14.6571 146.133 14.5518 152.021 11.2056L159.944 6.08856C162.923 5.81983 164.28 6.09132 165.721 7.90429C170.508 13.5169 170.178 33.1598 163.906 36.461C161.711 37.5667 160.169 37.5034 157.138 36.461C148.059 32.0043 145.418 29.8585 137 29.5283" stroke="black"/>
<path d="M156.481 13.0233L163.909 7.90625M159.287 14.6739L166.385 10.7124M159.617 16.9849L167.705 14.3438M157.966 19.9561L167.705 17.9753M157.801 22.7622L168.035 21.9368M155.82 24.5779L167.21 25.7334M157.306 28.0443C160.943 29.482 162.824 30.0062 165.889 30.1901M155.82 30.6853C158.253 32.4411 159.7 33.3408 162.918 34.3168" stroke="black"/>
<path d="M12.0209 14.5586C19.0115 15.469 10.7872 20.9836 11.2622 15.6208M12.4869 15.3173C14.4596 16.683 12.4217 17.1212 12.0209 16.076" stroke="black"/>
<path d="M28.268 5C18.4752 8.77466 13.315 11.3989 5.65859 18.505C4.44823 18.5735 3.85042 18.6291 3.68595 18.9602C3.40888 19.4897 3.29366 19.8042 3.23073 20.4776C6.16013 21.5411 7.64891 22.4509 10.0591 24.5746C9.53869 23.8482 7.02426 22.7448 5.65859 22.4502C4.17762 22.1308 3.38178 21.7926 2.0168 20.9328C0.981125 21.265 0.864952 21.7193 1.10635 22.7537C7.96569 28.2477 13.3587 31.0684 26.751 35.5M25 15.5C24.9289 18.0827 24.4734 19.945 25.1684 22.4502L26.9027 26.092C25.6976 28.7533 24.564 29.3951 21.8953 29.5821M10.5147 25.3333C13.047 27.7763 14.4314 29.0054 16.736 30.6443C19.8201 31.6913 20.6576 31.3234 21.1365 29.5821C19.9485 27.2204 18.9903 26.4917 17.0395 25.6368L8.08679 20.3259C11.6195 21.4694 13.3434 21.9645 15.9773 22.4502C19.1143 22.7399 19.95 23.6445 20.0744 26.3955" stroke="black"/>
<path d="M35.7422 8.45117C34.8672 8.45117 33.9785 8.54688 33.0762 8.73828C32.1829 8.92057 31.2441 9.26237 30.2598 9.76367C29.2845 10.265 28.4232 10.8984 27.6758 11.6641C26.9284 12.4297 26.3132 13.4505 25.8301 14.7266C25.347 15.9935 25.1055 17.429 25.1055 19.0332C25.1055 20.6374 25.347 22.0775 25.8301 23.3535C26.3132 24.6204 26.9284 25.6322 27.6758 26.3887C28.4232 27.1361 29.2845 27.7604 30.2598 28.2617C31.2441 28.7539 32.1829 29.0911 33.0762 29.2734C33.9785 29.4648 34.8672 29.5605 35.7422 29.5605C37.1185 29.5605 38.3535 29.4284 39.4473 29.1641C40.541 28.9089 41.7806 28.5078 43.166 27.9609C42.7559 26.8398 42.5508 25.4225 42.5508 23.709V21.6855C42.5508 21.0202 44.0684 20.5827 47.1035 20.373C47.2038 20.1543 47.2038 19.9401 47.1035 19.7305C44.7155 19.8034 42.8516 19.8398 41.5117 19.8398C40.3906 19.8398 38.8047 19.8034 36.7539 19.7305C36.6901 19.9401 36.6901 20.1543 36.7539 20.373C38.8594 20.5827 39.9121 21.0202 39.9121 21.6855V27.2363C39.1283 28.1296 37.7383 28.5762 35.7422 28.5762C34.6758 28.5762 33.7051 28.3802 32.8301 27.9883C31.9551 27.5964 31.2305 27.0814 30.6562 26.4434C30.0911 25.7962 29.6172 25.0488 29.2344 24.2012C28.8516 23.3535 28.5736 22.5013 28.4004 21.6445C28.2363 20.7786 28.1543 19.9082 28.1543 19.0332C28.1543 17.9121 28.291 16.8184 28.5645 15.752C28.847 14.6764 29.2708 13.6556 29.8359 12.6895C30.4102 11.7142 31.2031 10.9258 32.2148 10.3242C33.2357 9.72266 34.4115 9.42188 35.7422 9.42188C36.6354 9.42188 37.4648 9.56315 38.2305 9.8457C38.9961 10.1283 39.625 10.4609 40.1172 10.8438C40.6185 11.2266 41.1016 11.7415 41.5664 12.3887C42.0312 13.0267 42.3822 13.5827 42.6191 14.0566C42.8652 14.5215 43.1569 15.1139 43.4941 15.834C43.7767 15.7975 43.9453 15.6973 44 15.5332C43.3255 12.8262 42.3047 10.9714 40.9375 9.96875C39.5794 8.95703 37.8477 8.45117 35.7422 8.45117ZM43.166 16.4492C42.7741 15.5742 42.4141 14.8542 42.0859 14.2891C41.7578 13.7148 41.3158 13.0768 40.7598 12.375C40.2129 11.6641 39.5612 11.1126 38.8047 10.7207C38.0482 10.3288 37.2051 10.0918 36.2754 10.0098C35.209 10.0736 34.2702 10.3971 33.459 10.9805C32.6478 11.5547 32.0189 12.293 31.5723 13.1953C31.1257 14.0977 30.793 15.041 30.5742 16.0254C30.3555 17.0007 30.2461 18.0033 30.2461 19.0332C30.2461 20.4551 30.4375 21.8132 30.8203 23.1074C31.2031 24.4017 31.873 25.5456 32.8301 26.5391C33.7962 27.5234 34.9811 28.0156 36.3848 28.0156C37.6882 28.0156 38.6771 27.6829 39.3516 27.0176V21.6855C39.3516 21.3757 38.3353 21.1159 36.3027 20.9062C36.0566 20.2682 36.0749 19.6803 36.3574 19.1426C39.0827 19.2702 42.8516 19.2975 47.6641 19.2246C47.8737 19.7715 47.8828 20.332 47.6914 20.9062C45.6589 21.1159 44.6426 21.3757 44.6426 21.6855V23.709C44.6426 25.3678 44.9023 26.8991 45.4219 28.3027C44.1367 28.7858 43.1797 29.1185 42.5508 29.3008C41.931 29.4922 41.0286 29.6745 39.8438 29.8477C38.6589 30.0299 37.2917 30.1211 35.7422 30.1211C34.8034 30.1211 33.8646 30.0208 32.9258 29.8203C31.987 29.6289 31.0026 29.2734 29.9727 28.7539C28.9427 28.2253 28.0358 27.5645 27.252 26.7715C26.4681 25.9785 25.821 24.9167 25.3105 23.5859C24.8001 22.2461 24.5449 20.7285 24.5449 19.0332C24.5449 17.3379 24.7956 15.8249 25.2969 14.4941C25.7982 13.1543 26.4362 12.0833 27.2109 11.2812C27.9857 10.4792 28.8789 9.8138 29.8906 9.28516C30.9115 8.7474 31.8867 8.38281 32.8164 8.19141C33.7552 7.99089 34.694 7.89062 35.6328 7.89062C37.1458 7.89062 38.8229 8.08203 40.6641 8.46484C42.5143 8.84766 43.6901 9.06641 44.1914 9.12109C43.8997 10.2969 43.7858 11.3314 43.8496 12.2246C43.9134 13.1087 44.1686 14.1934 44.6152 15.4785C44.3509 16.0163 43.8678 16.3398 43.166 16.4492ZM54.3359 21.3027C54.5638 20.4642 55.0332 19.6484 55.7441 18.8555C56.4551 18.0625 57.1797 17.666 57.918 17.666C58.7839 17.666 59.2168 17.944 59.2168 18.5C59.2168 19.0013 58.9798 19.3203 58.5059 19.457C58.3783 19.6393 58.3783 19.8535 58.5059 20.0996C58.998 20.0996 59.3991 19.9492 59.709 19.6484C60.028 19.3477 60.1875 18.9284 60.1875 18.3906C60.1875 17.8255 60.0143 17.3835 59.668 17.0645C59.3307 16.7363 58.8887 16.5723 58.3418 16.5723C57.6309 16.5723 56.9154 16.8594 56.1953 17.4336C55.4844 17.9987 54.8646 18.6322 54.3359 19.334V16.9824C54.263 16.8366 54.1081 16.7181 53.8711 16.627C52.6497 17.2012 51.237 17.5749 49.6328 17.748C49.5781 17.9668 49.5781 18.181 49.6328 18.3906C50.8633 18.4453 51.7428 18.6322 52.2715 18.9512C52.3444 22.3509 52.3353 25.0762 52.2441 27.127C52.2259 27.8014 51.4512 28.2389 49.9199 28.4395C49.7832 28.6855 49.7832 28.8997 49.9199 29.082C52.3079 28.9727 54.9102 28.9727 57.7266 29.082C57.8542 28.8997 57.8542 28.6855 57.7266 28.4395C55.5664 28.2389 54.4772 27.8014 54.459 27.127C54.377 25.2767 54.3359 23.3353 54.3359 21.3027ZM56.3867 27.0996C56.4049 27.4551 57.0202 27.7331 58.2324 27.9336C58.5332 28.5352 58.515 29.1139 58.1777 29.6699C54.3132 29.5423 51.3919 29.515 49.4141 29.5879C49.0768 29.0501 49.0586 28.4987 49.3594 27.9336C50.8906 27.7331 51.6654 27.4551 51.6836 27.0996C51.793 24.502 51.8021 21.8952 51.7109 19.2793C51.1094 19.097 50.2799 18.9785 49.2227 18.9238C49.013 18.377 49.013 17.7982 49.2227 17.1875C50.7448 17.0964 52.3581 16.6862 54.0625 15.957C55.0469 16.0664 55.7852 16.3626 56.2773 16.8457C57.043 16.2897 57.7311 16.0117 58.3418 16.0117C59.0527 16.0117 59.6315 16.2214 60.0781 16.6406C60.5247 17.0599 60.748 17.6432 60.748 18.3906C60.748 19.1016 60.5384 19.6576 60.1191 20.0586C59.6999 20.4596 59.1621 20.6602 58.5059 20.6602C57.8952 20.6602 57.3848 20.4551 56.9746 20.0449C56.6009 20.5462 56.3685 21.002 56.2773 21.4121C56.2773 23.39 56.3138 25.2858 56.3867 27.0996ZM69.7988 17.4609C70.7376 17.4609 71.4805 17.9121 72.0273 18.8145C72.5833 19.7077 72.8613 21.0977 72.8613 22.9844C72.8613 24.8711 72.5833 26.2611 72.0273 27.1543C71.4805 28.0475 70.7376 28.4941 69.7988 28.4941C69.2793 28.4941 68.8053 28.3848 68.377 28.166C67.9577 27.9473 67.5977 27.61 67.2969 27.1543C67.0052 26.6986 66.7773 26.1289 66.6133 25.4453C66.4492 24.7526 66.3672 23.9323 66.3672 22.9844C66.3672 22.0456 66.4492 21.2298 66.6133 20.5371C66.7773 19.8353 67.0052 19.2611 67.2969 18.8145C67.5977 18.3587 67.9577 18.0215 68.377 17.8027C68.8053 17.5749 69.2793 17.4609 69.7988 17.4609ZM69.7988 29.3965C70.6465 29.3965 71.4076 29.237 72.082 28.918C72.7565 28.599 73.3307 28.1569 73.8047 27.5918C74.2878 27.0176 74.6569 26.3385 74.9121 25.5547C75.1673 24.7708 75.2949 23.9141 75.2949 22.9844C75.2949 22.0547 75.1673 21.1979 74.9121 20.4141C74.6569 19.6302 74.2878 18.9557 73.8047 18.3906C73.3307 17.8164 72.7565 17.3698 72.082 17.0508C71.4076 16.7318 70.6465 16.5723 69.7988 16.5723C68.8965 16.5723 68.0807 16.7318 67.3516 17.0508C66.6224 17.3698 66.0026 17.8118 65.4922 18.377C64.9909 18.9421 64.6035 19.6211 64.3301 20.4141C64.0566 21.1979 63.9199 22.0547 63.9199 22.9844C63.9199 23.9232 64.0566 24.7845 64.3301 25.5684C64.6035 26.3522 64.9909 27.0312 65.4922 27.6055C66.0026 28.1706 66.6224 28.6126 67.3516 28.9316C68.0807 29.2415 68.8965 29.3965 69.7988 29.3965ZM70.2773 16.0117C71.3802 16.0117 72.36 16.1803 73.2168 16.5176C74.0827 16.8548 74.8118 17.3333 75.4043 17.9531C75.9967 18.5638 76.4479 19.2975 76.7578 20.1543C77.0677 21.0111 77.2227 21.9544 77.2227 22.9844C77.2227 24.0052 77.0677 24.944 76.7578 25.8008C76.4479 26.6576 75.9967 27.3958 75.4043 28.0156C74.821 28.6263 74.0964 29.1003 73.2305 29.4375C72.3646 29.7839 71.3802 29.957 70.2773 29.957C69.1836 29.957 68.2038 29.7839 67.3379 29.4375C66.4811 29.1003 65.7565 28.6263 65.1641 28.0156C64.5807 27.3958 64.1341 26.6621 63.8242 25.8145C63.5143 24.9577 63.3594 24.0143 63.3594 22.9844C63.3594 21.9544 63.5143 21.0111 63.8242 20.1543C64.1341 19.2975 64.5853 18.5638 65.1777 17.9531C65.7702 17.3333 66.4948 16.8548 67.3516 16.5176C68.2083 16.1803 69.1836 16.0117 70.2773 16.0117ZM68.2949 22.9844C68.2949 25.9284 68.9557 27.5599 70.2773 27.8789C71.6263 27.5599 72.3008 25.9284 72.3008 22.9844C72.3008 20.0677 71.6263 18.4316 70.2773 18.0762C68.9557 18.4316 68.2949 20.0677 68.2949 22.9844ZM89.2812 25.6914C89.3542 23.4128 89.3542 21.1296 89.2812 18.8418C89.2812 18.5228 88.5931 18.2493 87.2168 18.0215C87.0072 17.4655 87.0072 16.9141 87.2168 16.3672H93.123C93.3783 16.4674 93.5605 16.5768 93.6699 16.6953C93.7884 16.8138 93.8932 16.987 93.9844 17.2148C93.9844 17.3789 93.9616 17.6387 93.916 17.9941C93.8704 18.3496 93.8477 18.6322 93.8477 18.8418C93.7565 21.8405 93.7565 24.4518 93.8477 26.6758C94.5039 26.8854 95.1966 27.0085 95.9258 27.0449C96.1263 27.5827 96.1263 28.1615 95.9258 28.7812C94.7318 28.8542 93.2552 29.2643 91.4961 30.0117C90.5026 29.9388 89.7643 29.638 89.2812 29.1094V28.7539C88.0326 29.556 86.5514 29.957 84.8379 29.957C83.5983 29.957 82.7188 29.6198 82.1992 28.9453C81.6797 28.2708 81.4108 27.2135 81.3926 25.7734C81.4108 23.4857 81.4108 21.1751 81.3926 18.8418C81.3926 18.5228 80.6999 18.2493 79.3145 18.0215C79.1139 17.4655 79.1139 16.9141 79.3145 16.3672H85.248C85.5124 16.4674 85.6992 16.5768 85.8086 16.6953C85.9271 16.8138 86.0319 16.987 86.123 17.2148C86.123 17.3789 86.1003 17.6387 86.0547 17.9941C86.0091 18.3496 85.9863 18.6322 85.9863 18.8418C85.9225 20.9655 85.9225 23.1302 85.9863 25.3359C86.0228 26.375 86.2096 26.9811 86.5469 27.1543C87.2122 26.9811 88.1237 26.4935 89.2812 25.6914ZM89.8418 18.8418C89.8965 21.2116 89.8965 23.5905 89.8418 25.9785C88.1465 27.1908 86.8385 27.7969 85.918 27.7969C84.6693 27.7969 84.0449 26.9766 84.0449 25.3359C83.9902 23.1302 83.9902 20.9655 84.0449 18.8418C84.0449 18.5957 84.0677 18.2995 84.1133 17.9531C84.168 17.6068 84.1953 17.388 84.1953 17.2969C84.0951 17.0872 83.9629 16.946 83.7988 16.873C82.4499 16.9642 81.1055 16.9642 79.7656 16.873C79.6927 17.0827 79.6927 17.2969 79.7656 17.5156C81.2057 17.7435 81.9349 18.1855 81.9531 18.8418C81.9714 21.1569 81.9714 23.4674 81.9531 25.7734C81.9349 27.013 82.1491 27.929 82.5957 28.5215C83.0423 29.1048 83.7897 29.3965 84.8379 29.3965C86.2142 29.3965 87.8822 28.5443 89.8418 26.8398V28.8359C89.9147 28.9818 90.0742 29.1003 90.3203 29.1914C91.6237 28.7083 93.3145 28.3848 95.3926 28.2207C95.4655 27.9928 95.4655 27.7786 95.3926 27.5781C93.8249 27.5143 92.6673 27.3275 91.9199 27.0176C91.847 23.7637 91.847 21.0384 91.9199 18.8418C91.9199 18.5957 91.9427 18.2995 91.9883 17.9531C92.0339 17.6068 92.0566 17.388 92.0566 17.2969C91.9655 17.0872 91.8333 16.946 91.6602 16.873C90.3385 16.946 89.0033 16.946 87.6543 16.873C87.5814 17.0827 87.5814 17.2969 87.6543 17.5156C89.0944 17.7435 89.8236 18.1855 89.8418 18.8418ZM105.674 18.3633C106.749 18.3633 107.565 18.8008 108.121 19.6758C108.686 20.5508 108.969 21.6628 108.969 23.0117C108.969 24.9896 108.618 26.3978 107.916 27.2363C107.223 28.0749 106.467 28.4941 105.646 28.4941C104.079 28.4941 102.985 27.9154 102.365 26.7578V19.6484C103.413 18.7917 104.516 18.3633 105.674 18.3633ZM108.408 23.0117C108.408 21.9453 108.212 21.0384 107.82 20.291C107.428 19.5436 106.859 19.1061 106.111 18.9785C105.482 19.0697 104.876 19.375 104.293 19.8945V26.6758C104.648 27.3685 105.218 27.7786 106.002 27.9062C106.658 27.7786 107.223 27.332 107.697 26.5664C108.171 25.8008 108.408 24.6159 108.408 23.0117ZM97.6348 18.3906H97.6621C98.8926 18.4453 99.7676 18.6322 100.287 18.9512C100.287 25.9329 100.278 31.0827 100.26 34.4004C100.242 35.0749 99.4668 35.5169 97.9355 35.7266C97.8809 35.9271 97.8809 36.1413 97.9355 36.3691C100.324 36.2507 102.93 36.2507 105.756 36.3691C105.865 36.1595 105.865 35.9453 105.756 35.7266C103.587 35.5169 102.493 35.0749 102.475 34.4004L102.393 28.918C103.286 29.237 104.238 29.3965 105.25 29.3965C106.316 29.3965 107.255 29.1823 108.066 28.7539C108.878 28.3164 109.511 27.7513 109.967 27.0586C110.423 26.3568 110.764 25.6094 110.992 24.8164C111.229 24.0234 111.348 23.2077 111.348 22.3691C111.348 20.5918 110.942 19.1836 110.131 18.1445C109.32 17.0964 108.271 16.5723 106.986 16.5723C105.419 16.5723 103.878 17.2422 102.365 18.582V16.9824C102.292 16.8366 102.133 16.7181 101.887 16.627C100.674 17.2012 99.2663 17.5749 97.6621 17.748C97.5892 17.9486 97.5801 18.1628 97.6348 18.3906ZM97.2109 17.1875C98.9883 17.0326 100.592 16.5905 102.023 15.8613C103.017 15.9434 103.755 16.2441 104.238 16.7637C105.095 16.2624 106.339 16.0117 107.971 16.0117C109.538 16.0117 110.814 16.5859 111.799 17.7344C112.792 18.8828 113.289 20.4277 113.289 22.3691C113.289 23.2806 113.152 24.1647 112.879 25.0215C112.605 25.8783 112.204 26.6849 111.676 27.4414C111.147 28.1979 110.409 28.804 109.461 29.2598C108.522 29.7246 107.447 29.957 106.234 29.957C105.451 29.957 104.812 29.9388 104.32 29.9023L104.402 34.373C104.421 34.7285 105.04 35.0111 106.262 35.2207C106.499 35.7585 106.499 36.3281 106.262 36.9297C102.616 36.793 99.7038 36.7702 97.5254 36.8613C97.3158 36.2871 97.3158 35.7402 97.5254 35.2207C98.9564 35.0293 99.681 34.7467 99.6992 34.373L99.7266 19.2793C99.1341 19.097 98.3047 18.9785 97.2383 18.9238C97.0013 18.377 96.9922 17.7982 97.2109 17.1875ZM122.162 17.4609C122.891 17.4609 123.42 17.6979 123.748 18.1719C124.076 18.6367 124.24 19.2201 124.24 19.9219C124.24 20.1862 124.195 20.487 124.104 20.8242H118.771C119.054 19.6849 119.51 18.8418 120.139 18.2949C120.777 17.7389 121.451 17.4609 122.162 17.4609ZM118.635 21.7539H126.086C126.232 21.2982 126.305 20.8288 126.305 20.3457C126.305 19.2793 125.999 18.3861 125.389 17.666C124.787 16.9368 123.826 16.5723 122.504 16.5723C120.781 16.5723 119.332 17.1966 118.156 18.4453C116.98 19.694 116.393 21.2799 116.393 23.2031C116.393 25.2539 116.953 26.7988 118.074 27.8379C119.195 28.877 120.512 29.3965 122.025 29.3965C123.146 29.3965 124.186 29.0957 125.143 28.4941C126.109 27.8835 126.815 26.9674 127.262 25.7461C127.134 25.6003 126.956 25.5 126.729 25.4453C126.692 25.5 126.583 25.6504 126.4 25.8965C126.227 26.1335 126.1 26.3066 126.018 26.416C125.936 26.5163 125.785 26.6667 125.566 26.8672C125.357 27.0586 125.152 27.1999 124.951 27.291C124.76 27.3822 124.514 27.4733 124.213 27.5645C123.912 27.6465 123.584 27.6875 123.229 27.6875C121.825 27.6875 120.708 27.2728 119.879 26.4434C119.049 25.6048 118.617 24.4792 118.58 23.0664C118.58 22.7474 118.598 22.3099 118.635 21.7539ZM126.51 24.8027C127.084 24.9303 127.549 25.2174 127.904 25.6641C127.385 27.0859 126.583 28.1569 125.498 28.877C124.413 29.597 123.256 29.957 122.025 29.957C120.348 29.957 118.895 29.3919 117.664 28.2617C116.443 27.1315 115.832 25.4453 115.832 23.2031C115.832 21.1706 116.456 19.4661 117.705 18.0898C118.963 16.7044 120.74 16.0117 123.037 16.0117C126.51 16.0117 128.246 17.4564 128.246 20.3457C128.246 20.9108 128.114 21.5671 127.85 22.3145H120.508V23.2031C120.553 24.306 120.854 25.2038 121.41 25.8965C121.966 26.5801 122.732 26.9811 123.707 27.0996C124.281 27.0449 124.755 26.849 125.129 26.5117C125.503 26.1745 125.963 25.6048 126.51 24.8027ZM123.68 19.9219C123.68 18.9193 123.342 18.3132 122.668 18.1035C121.866 18.3496 121.269 19.0697 120.877 20.2637H123.652C123.652 20.2272 123.657 20.1725 123.666 20.0996C123.675 20.0267 123.68 19.9674 123.68 19.9219ZM135.684 21.3027C135.911 20.4642 136.381 19.6484 137.092 18.8555C137.803 18.0625 138.527 17.666 139.266 17.666C140.132 17.666 140.564 17.944 140.564 18.5C140.564 19.0013 140.327 19.3203 139.854 19.457C139.726 19.6393 139.726 19.8535 139.854 20.0996C140.346 20.0996 140.747 19.9492 141.057 19.6484C141.376 19.3477 141.535 18.9284 141.535 18.3906C141.535 17.8255 141.362 17.3835 141.016 17.0645C140.678 16.7363 140.236 16.5723 139.689 16.5723C138.979 16.5723 138.263 16.8594 137.543 17.4336C136.832 17.9987 136.212 18.6322 135.684 19.334V16.9824C135.611 16.8366 135.456 16.7181 135.219 16.627C133.997 17.2012 132.585 17.5749 130.98 17.748C130.926 17.9668 130.926 18.181 130.98 18.3906C132.211 18.4453 133.09 18.6322 133.619 18.9512C133.692 22.3509 133.683 25.0762 133.592 27.127C133.574 27.8014 132.799 28.2389 131.268 28.4395C131.131 28.6855 131.131 28.8997 131.268 29.082C133.656 28.9727 136.258 28.9727 139.074 29.082C139.202 28.8997 139.202 28.6855 139.074 28.4395C136.914 28.2389 135.825 27.8014 135.807 27.127C135.725 25.2767 135.684 23.3353 135.684 21.3027ZM137.734 27.0996C137.753 27.4551 138.368 27.7331 139.58 27.9336C139.881 28.5352 139.863 29.1139 139.525 29.6699C135.661 29.5423 132.74 29.515 130.762 29.5879C130.424 29.0501 130.406 28.4987 130.707 27.9336C132.238 27.7331 133.013 27.4551 133.031 27.0996C133.141 24.502 133.15 21.8952 133.059 19.2793C132.457 19.097 131.628 18.9785 130.57 18.9238C130.361 18.377 130.361 17.7982 130.57 17.1875C132.092 17.0964 133.706 16.6862 135.41 15.957C136.395 16.0664 137.133 16.3626 137.625 16.8457C138.391 16.2897 139.079 16.0117 139.689 16.0117C140.4 16.0117 140.979 16.2214 141.426 16.6406C141.872 17.0599 142.096 17.6432 142.096 18.3906C142.096 19.1016 141.886 19.6576 141.467 20.0586C141.048 20.4596 140.51 20.6602 139.854 20.6602C139.243 20.6602 138.732 20.4551 138.322 20.0449C137.949 20.5462 137.716 21.002 137.625 21.4121C137.625 23.39 137.661 25.2858 137.734 27.0996Z" fill="black"/>
</svg>
