<svg width="33" height="40" viewBox="0 0 33 40" fill="none" xmlns="http://www.w3.org/2000/svg">
<path fill-rule="evenodd" clip-rule="evenodd" d="M16.5734 0C15.9757 0 15.4913 0.484464 15.4913 1.08208V4.9373C15.4913 5.53491 15.9757 6.01938 16.5734 6.01938C17.171 6.01938 17.6554 5.53491 17.6554 4.9373V1.08208C17.6554 0.484464 17.171 0 16.5734 0ZM6.54863 4.39584C6.22766 3.89449 6.3771 3.23295 6.88241 2.91826C7.38772 2.60356 8.05756 2.75487 8.37852 3.25622L10.4746 6.53033C10.7956 7.03168 10.6462 7.69321 10.1409 8.00791C9.63555 8.32261 8.96571 8.17129 8.64474 7.66994L6.54863 4.39584ZM16.6817 8.61047C11.2027 8.61047 6.76111 13.0521 6.76111 18.5311V25.904C6.76111 27.8861 7.69277 29.6506 9.14207 30.7834V39.1387H21.8405V35.2527C24.3756 34.8639 26.6024 32.7578 26.6024 29.736V27.1622H28.279C29.0182 27.1622 29.5019 26.3881 29.1778 25.7238L26.6024 20.4443V18.5311C26.6024 13.0521 22.1608 8.61047 16.6817 8.61047ZM16.1344 14.9806L15.9087 15.5345C15.6748 16.1086 16.0778 16.7325 16.6809 16.7718C17.2831 16.7316 17.6855 16.1082 17.4517 15.5345L17.2261 14.981C17.3619 14.9122 17.5154 14.8733 17.678 14.8733H19.3061C19.8922 14.8733 20.3522 15.3753 20.3334 15.9612C20.3194 16.3953 20.32 16.8665 20.3646 17.1845L20.3939 17.2394C20.5665 17.5628 20.9544 17.7051 21.2953 17.5699L21.9951 17.2925C22.6912 17.0166 23.4427 17.5398 23.4255 18.2881C23.4086 19.0183 22.6673 19.5072 21.9897 19.235L21.2409 18.9343C20.9933 18.8348 20.7186 18.8764 20.5139 19.029C20.5033 19.0677 20.4915 19.1082 20.4783 19.1505C20.3628 19.5222 20.3251 19.9665 20.3219 20.3698C20.3171 20.9809 19.8466 21.5268 19.2355 21.5268H17.678C17.5182 21.5268 17.3671 21.4893 17.2331 21.4226C17.1675 21.2766 17.16 21.1054 17.2246 20.947L17.4517 20.3896C17.6856 19.8155 17.2825 19.1916 16.6795 19.1523C16.0772 19.1924 15.6749 19.8158 15.9087 20.3895L16.1358 20.9469C16.2003 21.1052 16.1929 21.2761 16.1276 21.422C15.9935 21.4887 15.8423 21.5263 15.6824 21.5263H14.1249C13.5138 21.5263 13.0433 20.9804 13.0385 20.3693C13.0353 19.966 12.9976 19.5217 12.8821 19.1501C12.8689 19.1077 12.857 19.0672 12.8465 19.0285C12.6418 18.876 12.3671 18.8344 12.1195 18.9338L11.3707 19.2346C10.6931 19.5068 9.95178 19.0179 9.93493 18.2876C9.91766 17.5393 10.6692 17.0162 11.3653 17.292L12.0651 17.5694C12.406 17.7046 12.7939 17.5623 12.9665 17.2389L12.9958 17.184C13.0404 16.866 13.0409 16.3948 13.027 15.9607C13.0082 15.3749 13.4682 14.8729 14.0543 14.8729H15.6824C15.845 14.8729 15.9986 14.9117 16.1344 14.9806ZM0.12942 10.3338C-0.152888 10.8533 0.0420071 11.4985 0.56473 11.7748L4.05095 13.6177C4.57367 13.894 5.22628 13.6968 5.50859 13.1773C5.79089 12.6578 5.596 12.0127 5.07328 11.7363L1.58706 9.89348C1.06433 9.61716 0.411728 9.81431 0.12942 10.3338ZM32.7659 10.3338C33.0483 10.8533 32.8534 11.4985 32.3306 11.7748L28.8444 13.6177C28.3217 13.894 27.6691 13.6968 27.3868 13.1773C27.1045 12.6578 27.2994 12.0127 27.8221 11.7363L31.3083 9.89348C31.831 9.61716 32.4836 9.81431 32.7659 10.3338ZM26.3467 4.39584C26.6677 3.89449 26.5183 3.23295 26.013 2.91826C25.5076 2.60356 24.8378 2.75487 24.5168 3.25622L22.4207 6.53033C22.0998 7.03168 22.2492 7.69321 22.7545 8.00791C23.2598 8.32261 23.9297 8.17129 24.2506 7.66994L26.3467 4.39584Z" fill="black"/>
</svg>
