<svg width="43" height="41" viewBox="0 0 43 41" fill="none" xmlns="http://www.w3.org/2000/svg">
<path d="M21.9755 2.31763L25.574 13.3926C26.0426 14.8347 27.3864 15.8111 28.9027 15.8111H40.5476C41.032 15.8111 41.2334 16.4309 40.8415 16.7156L31.4206 23.5603C30.1939 24.4515 29.6806 26.0313 30.1491 27.4734L33.7476 38.5484C33.8973 39.009 33.37 39.3921 32.9782 39.1074L23.5572 32.2627C22.3305 31.3714 20.6695 31.3714 19.4428 32.2627L10.0218 39.1074C9.62995 39.3921 9.10271 39.009 9.25239 38.5484L12.8509 27.4734C13.3194 26.0313 12.8061 24.4515 11.5794 23.5603L2.15848 16.7156C1.76662 16.4309 1.96801 15.8111 2.45237 15.8111H14.0973C15.6136 15.8111 16.9574 14.8347 17.426 13.3926L21.0245 2.31763C21.1741 1.85697 21.8259 1.85698 21.9755 2.31763Z" stroke="black" stroke-width="3"/>
</svg>
