<svg width="30" height="31" viewBox="0 0 30 31" fill="none" xmlns="http://www.w3.org/2000/svg">
<path d="M0 15.4056C-2.5387e-07 18.4525 0.861115 21.431 2.47445 23.9645C4.08779 26.4979 6.38089 28.4725 9.06377 29.6385C11.7467 30.8045 14.6988 31.1096 17.547 30.5151C20.3951 29.9207 23.0113 28.4535 25.0647 26.299C27.1181 24.1445 28.5164 21.3994 29.083 18.4111C29.6495 15.4227 29.3587 12.3251 28.2474 9.51012C27.1362 6.69512 25.2543 4.28909 22.8397 2.59631C20.4252 0.903522 17.5865 2.30037e-07 14.6825 0L14.6825 4.1678C16.8008 4.1678 18.8716 4.82689 20.6329 6.06171C22.3942 7.29653 23.767 9.05163 24.5776 11.1051C25.3883 13.1585 25.6004 15.418 25.1871 17.598C24.7738 19.7779 23.7538 21.7803 22.2559 23.3519C20.758 24.9235 18.8496 25.9938 16.772 26.4274C14.6944 26.861 12.5409 26.6385 10.5839 25.7879C8.62681 24.9374 6.95408 23.497 5.77721 21.6489C4.60034 19.8009 3.97219 17.6282 3.97219 15.4056L0 15.4056Z" fill="black"/>
<ellipse cx="11.1107" cy="2.4975" rx="1.5873" ry="1.66547" fill="black"/>
<ellipse cx="5.55605" cy="5.82953" rx="1.5873" ry="1.66547" fill="black"/>
<ellipse cx="2.38418" cy="12.4897" rx="1.5873" ry="1.66547" fill="black"/>
<path d="M11.9062 10.8242H14.4006V16.211H19.8428V18.3188H13.9062C12.8017 18.3188 11.9062 17.4234 11.9062 16.3188V10.8242Z" fill="black"/>
</svg>
