<svg width="26" height="32" viewBox="0 0 26 32" fill="none" xmlns="http://www.w3.org/2000/svg">
<path d="M2.03153 30.1575H1.01577C1.0153 30.1575 1.01496 30.1575 1.01473 30.1575C1.01407 30.1571 1.01232 30.1561 1.01003 30.1538C1.00718 30.1509 1.00468 30.1472 1.00296 30.1431C1.00151 30.1396 1 30.1344 1 30.126V3.82061C1 3.81218 1.00151 3.807 1.00296 3.80352C1.00468 3.79941 1.00718 3.79571 1.01003 3.79281C1.01232 3.79049 1.01407 3.78944 1.01473 3.78909C1.01496 3.78908 1.0153 3.78906 1.01577 3.78906H24.3791C24.3794 3.78906 24.3796 3.78907 24.3799 3.78908C24.3799 3.78908 24.38 3.78909 24.3801 3.78909C24.3807 3.78943 24.3825 3.79048 24.3848 3.79281C24.3876 3.79571 24.3902 3.79941 24.3919 3.80352C24.3933 3.807 24.3948 3.81218 24.3948 3.82061V24.3353L17.4504 27.6264L5.98575 30.1575H2.03153Z" stroke="black" stroke-width="2"/>
<path d="M25.3945 23.4224V24.5055C25.3957 25.8045 24.7098 27.0039 23.598 27.6466C19.9499 29.7406 15.8715 30.9432 11.6864 31.1592H2.03125C15.7444 31.1592 21.3313 22.3906 21.3313 22.3906V23.3346C21.3136 24.4194 22.1042 25.343 23.1643 25.4762C23.735 25.5331 24.3029 25.3425 24.7277 24.9513C25.1524 24.5601 25.3948 24.0047 25.3945 23.4224Z" fill="black"/>
<path d="M3.95327 3.3131H4.20256L4.20326 3.0638C4.20449 2.62876 4.55032 2.28295 4.96941 2.28155H7.00018C7.41917 2.28295 7.76494 2.62859 7.76633 3.06349V10.2842C7.76633 11.2893 6.96518 12.0973 5.9848 12.0973C5.00441 12.0973 4.20327 11.2893 4.20327 10.2842V7.18954C4.20327 6.77024 3.86748 6.42365 3.44527 6.42365C3.02291 6.42365 2.6875 6.77038 2.6875 7.18954V10.2842C2.6875 12.1279 4.16023 13.6288 5.9848 13.6288C7.80958 13.6288 9.28232 12.1279 9.28232 10.2842V3.0631C9.28232 1.78938 8.26431 0.75 7.00056 0.75H4.96903C3.70525 0.75 2.6875 1.78942 2.6875 3.0631V3.3131H2.9375H3.95327Z" fill="black" stroke="black" stroke-width="0.5"/>
</svg>
